
<svg width="24" height="24" viewBox="0 0 24 24" fill="none" xmlns="http://www.w3.org/2000/svg">
  <path d="M19 3H5C3.89543 3 3 3.89543 3 5V19C3 20.1046 3.89543 21 5 21H19C20.1046 21 21 20.1046 21 19V5C21 3.89543 20.1046 3 19 3Z" stroke="#0A2342" stroke-width="2" stroke-linecap="round" stroke-linejoin="round"/>
  <path d="M12 17C14.2091 17 16 15.2091 16 13C16 10.7909 14.2091 9 12 9C9.79086 9 8 10.7909 8 13C8 15.2091 9.79086 17 12 17Z" stroke="#0A2342" stroke-width="2" stroke-linecap="round" stroke-linejoin="round"/>
  <path d="M6 7H6.01" stroke="#0A2342" stroke-width="2" stroke-linecap="round" stroke-linejoin="round"/>
  <path d="M18 7H18.01" stroke="#0A2342" stroke-width="2" stroke-linecap="round" stroke-linejoin="round"/>
</svg>
