<?xml version="1.0" standalone="no"?>
<!DOCTYPE svg PUBLIC "-//W3C//DTD SVG 20010904//EN"
 "http://www.w3.org/TR/2001/REC-SVG-20010904/DTD/svg10.dtd">
<svg version="1.0" xmlns="http://www.w3.org/2000/svg"
 width="374.000000pt" height="249.000000pt" viewBox="0 0 374.000000 249.000000"
 preserveAspectRatio="xMidYMid meet">

<g transform="translate(0.000000,249.000000) scale(0.100000,-0.100000)"
fill="#000000" stroke="none">
<path d="M1560 2394 c-155 -27 -356 -102 -474 -176 -144 -91 -264 -204 -358
-338 l-48 -68 33 -21 c18 -11 42 -30 53 -42 21 -24 18 -23 -39 6 -32 16 -40
17 -47 6 -6 -11 -19 -3 -56 34 l-47 48 -24 -27 c-12 -15 -23 -32 -22 -39 0 -7
5 -2 11 11 6 12 16 22 22 22 7 0 36 -25 66 -56 49 -51 52 -56 28 -50 -21 5
-26 3 -22 -8 8 -20 -35 -43 -47 -25 -6 11 -13 9 -31 -7 -13 -12 -29 -19 -35
-17 -8 3 -13 -4 -13 -19 0 -12 -3 -41 -6 -63 -4 -27 -3 -36 4 -26 7 10 11 -1
13 -37 4 -46 2 -51 -16 -49 -18 2 -20 -3 -17 -43 1 -25 3 -86 5 -137 1 -50 5
-89 8 -87 3 2 9 -30 12 -70 4 -40 11 -85 17 -100 8 -23 7 -26 -11 -26 -11 0
-24 10 -29 22 -8 20 -9 18 -9 -13 -1 -31 2 -37 22 -38 152 -11 465 -11 532 -1
69 11 91 10 150 -3 100 -23 579 -26 621 -4 30 15 54 15 522 -10 82 -4 105 -1
195 25 56 16 152 37 212 46 61 10 139 22 175 27 36 6 93 23 126 39 61 29 62
30 55 62 -7 29 -21 60 -50 108 -5 8 -18 33 -29 55 -15 32 -24 40 -47 40 -15 1
-38 -5 -51 -12 -25 -12 -54 -8 -54 8 0 5 -27 9 -59 9 -49 0 -73 -7 -128 -35
-37 -19 -69 -35 -69 -35 -1 0 -5 16 -8 35 l-7 35 -82 -1 c-45 0 -117 -4 -159
-7 l-78 -7 -11 53 c-6 29 -8 59 -5 67 6 17 46 8 46 -11 0 -8 5 -14 10 -14 6 0
10 -4 10 -10 0 -5 -7 -10 -15 -10 -10 0 -15 -10 -15 -30 0 -37 25 -41 34 -6
l6 25 25 -25 c13 -13 30 -24 37 -24 7 0 2 7 -10 16 -12 8 -22 25 -22 37 0 32
31 107 44 107 6 0 54 -12 105 -25 52 -14 104 -25 115 -24 44 2 -202 60 -251
59 -56 0 -61 4 -38 34 14 19 15 19 35 1 11 -10 20 -13 20 -8 0 6 -7 16 -16 23
-8 8 -22 29 -30 48 -13 31 -17 34 -46 29 -40 -6 -62 5 -112 55 -21 21 -46 38
-55 38 -13 -1 -12 -3 4 -12 44 -26 57 -68 31 -103 -14 -19 -15 -19 -24 5 -6
14 -16 46 -23 72 -12 42 -16 47 -46 50 -36 4 -49 -4 -55 -37 -5 -31 -31 -24
-40 11 -4 17 -17 39 -28 49 -11 10 -20 24 -20 31 0 7 -8 10 -20 7 -15 -4 -34
8 -70 41 -27 25 -55 46 -61 46 -7 0 -23 10 -35 21 l-23 21 6 -56 c4 -37 2 -61
-7 -71 -18 -22 -30 -9 -30 35 0 21 -4 50 -10 64 -5 14 -5 28 0 31 13 8 -20 65
-45 77 -28 12 -69 -6 -61 -28 7 -19 -20 -80 -40 -88 -23 -9 -44 12 -44 44 0
29 -27 60 -53 60 -9 0 -19 5 -22 10 -9 15 36 11 65 -5 14 -8 39 -14 55 -13 27
1 27 1 5 5 -14 2 -39 11 -57 19 -17 8 -61 14 -100 14 -76 0 -133 -21 -172 -64
-14 -14 -30 -26 -36 -26 -27 0 -55 -41 -55 -81 l0 -40 -104 -51 c-136 -65
-177 -70 -233 -28 -24 17 -43 36 -43 41 0 34 159 218 251 291 66 53 85 65 175
116 118 66 144 76 267 106 258 64 446 59 703 -16 148 -44 417 -212 484 -303 8
-11 33 -40 56 -65 85 -93 161 -233 204 -377 45 -154 51 -147 -81 -112 -62 16
-121 29 -133 28 -13 0 -8 -4 14 -10 19 -5 80 -21 135 -36 113 -29 129 -38 94
-52 -15 -6 -18 -10 -8 -10 9 -1 22 6 29 14 10 12 16 13 27 4 23 -19 26 -3 13
63 -42 221 -159 437 -325 604 -152 153 -334 258 -575 331 -77 23 -104 26 -285
29 -110 1 -211 0 -225 -2z m-182 -381 c-10 -2 -26 -2 -35 0 -10 3 -2 5 17 5
19 0 27 -2 18 -5z m256 1 c23 -9 20 -72 -4 -111 -34 -56 -51 -40 -43 42 7 78
11 83 47 69z m-317 -10 c-3 -3 -12 -4 -19 -1 -8 3 -5 6 6 6 11 1 17 -2 13 -5z
m32 -32 c-29 -22 -139 -82 -151 -82 -16 0 -7 17 32 58 37 39 45 42 92 42 l51
0 -24 -18z m100 4 c-2 -1 -20 -8 -39 -14 -32 -11 -33 -10 -16 3 16 12 69 23
55 11z m-293 -112 c-3 -8 -10 -14 -16 -14 -14 0 -13 53 3 69 10 10 13 7 15
-14 2 -15 1 -33 -2 -41z m213 27 c-19 -21 -52 -49 -74 -62 -42 -24 -110 -71
-184 -127 -24 -18 -61 -42 -82 -52 -32 -17 -38 -17 -43 -5 -3 10 -19 15 -42
15 -48 0 -41 6 56 45 44 19 94 45 112 60 17 14 52 37 77 50 25 13 78 44 116
69 87 56 108 59 64 7z m101 29 c0 -5 -6 -9 -12 -7 -7 1 -12 -5 -12 -14 1 -11
-5 -15 -17 -12 -21 6 -26 -12 -6 -21 6 -3 2 -3 -10 0 -13 3 -23 1 -23 -5 0 -6
-7 -11 -16 -11 -10 0 -14 -6 -10 -15 6 -16 -9 -21 -18 -7 -5 9 100 102 115
102 5 0 9 -4 9 -10z m93 -52 c-2 -8 9 -19 25 -25 22 -9 23 -11 7 -12 -11 -1
-31 -15 -45 -33 -14 -17 -42 -50 -62 -72 -21 -23 -41 -51 -44 -63 -7 -25 -19
-30 -30 -12 -13 22 -90 49 -142 49 -31 0 -51 4 -47 10 3 5 13 6 22 3 13 -5 15
-2 10 11 -5 13 -3 16 11 12 10 -4 28 5 47 22 17 16 42 36 57 46 15 10 25 23
21 29 -3 6 -1 7 6 3 6 -4 19 -2 27 5 13 10 17 10 26 -2 8 -11 9 -10 4 5 -10
30 9 42 61 40 35 -2 47 -6 46 -16z m271 -20 c46 -41 55 -68 36 -98 -14 -21
-42 -1 -54 37 -4 17 -19 37 -32 44 -27 14 -34 59 -10 59 8 0 35 -19 60 -42z
m-171 18 c3 -8 -3 -22 -14 -32 -18 -16 -19 -16 -14 -1 3 9 7 24 10 32 6 19 11
19 18 1z m138 -102 c18 -35 32 -50 49 -52 28 -4 50 20 50 55 0 13 3 23 8 23 8
0 37 -54 47 -87 12 -41 78 -43 93 -3 8 21 8 21 30 -3 12 -12 25 -38 28 -57 7
-30 5 -33 -12 -25 -59 26 -165 58 -247 75 -91 18 -227 67 -227 80 0 4 9 15 20
25 19 17 20 17 39 -6 18 -22 19 -22 45 -6 14 10 26 22 26 28 0 24 27 0 51 -47z
m-491 42 c0 -2 3 -13 6 -23 6 -15 4 -16 -7 -5 -20 19 -31 14 -25 -10 3 -13 3
-17 0 -10 -10 21 -29 13 -63 -25 -20 -22 -47 -41 -65 -45 l-31 -6 24 16 c13 9
51 37 85 63 56 44 76 56 76 45z m-235 -36 c-3 -5 -12 -10 -18 -10 -7 0 -6 4 3
10 19 12 23 12 15 0z m615 -72 c0 -5 -14 -8 -30 -8 -41 0 -94 -23 -125 -54
-24 -24 -25 -29 -25 -158 0 -72 -4 -128 -8 -123 -8 9 -31 123 -48 231 -6 39
-3 44 37 87 24 25 52 55 61 66 17 20 17 20 77 -7 34 -15 61 -30 61 -34z m405
21 c11 -17 -1 -21 -15 -4 -8 9 -8 15 -2 15 6 0 14 -5 17 -11z m-1312 -48 c8
-8 -7 -11 -51 -11 -57 0 -79 11 -49 24 18 8 88 -1 100 -13z m1168 -36 c47 -13
104 -33 127 -43 l41 -18 -55 -12 c-61 -12 -114 -45 -114 -69 0 -27 -11 -7 -21
38 -6 24 -26 63 -45 86 -20 24 -31 43 -27 43 5 0 47 -11 94 -25z m-871 -16 c0
-18 -2 -19 -15 -9 -8 7 -15 16 -15 21 0 5 7 9 15 9 9 0 15 -9 15 -21z m1176
-34 c7 -22 14 -41 14 -43 0 -5 -56 11 -82 24 l-27 14 22 24 c32 35 56 29 73
-19z m59 9 c0 -19 -5 -29 -15 -29 -16 0 -25 28 -16 51 10 25 31 10 31 -22z
m-1287 4 c-6 -18 -28 -21 -28 -4 0 9 7 16 16 16 9 0 14 -5 12 -12z m22 -130
c-12 -62 -26 -141 -32 -175 l-11 -63 -97 0 c-54 0 -113 -3 -131 -6 -25 -4 -30
-3 -19 5 8 5 38 13 67 17 50 6 55 9 106 73 63 79 77 113 77 192 0 54 2 58 28
67 15 5 28 8 30 7 2 -2 -6 -54 -18 -117z m1205 42 c3 -5 1 -10 -4 -10 -6 0
-11 5 -11 10 0 6 2 10 4 10 3 0 8 -4 11 -10z m111 -23 c11 -10 -10 -45 -27
-44 -23 2 -26 17 -3 17 9 0 14 6 11 13 -2 6 -13 12 -25 12 -11 0 -25 4 -29 9
-7 8 65 1 73 -7z m-1666 -33 c0 -4 -12 -21 -27 -40 -35 -42 -116 -141 -142
-174 l-20 -25 -1 62 c0 53 3 64 21 73 16 9 18 14 8 26 -15 19 -33 18 -25 -1 3
-8 1 -15 -4 -15 -17 0 -11 26 9 44 19 17 20 17 23 -6 4 -30 32 -34 57 -9 12
12 25 21 29 21 5 0 19 11 32 25 22 24 40 32 40 19z m574 -56 c4 -28 3 -48 -2
-48 -10 0 -22 47 -22 88 0 41 17 13 24 -40z m466 -4 c0 -24 -4 -44 -10 -44 -5
0 -10 23 -10 51 0 31 4 48 10 44 6 -3 10 -26 10 -51z m-1155 6 c-3 -5 -10 -10
-16 -10 -5 0 -9 5 -9 10 0 6 7 10 16 10 8 0 12 -4 9 -10z m1524 -103 c1 -10
-3 -15 -9 -12 -5 3 -10 23 -9 43 1 33 2 34 9 12 4 -14 8 -33 9 -43z m906 -19
c13 -29 32 -66 42 -81 18 -28 18 -29 -5 -47 -13 -11 -21 -24 -17 -30 3 -6 -14
-19 -40 -30 -59 -25 -73 -25 -50 0 9 10 20 19 24 18 21 -2 41 3 41 12 0 5 -6
7 -13 4 -11 -4 -13 7 -9 50 4 44 0 63 -18 93 -21 35 -21 38 -4 50 10 7 19 13
21 13 2 0 15 -24 28 -52z m-215 -89 c0 -24 -4 -38 -10 -34 -5 3 -10 22 -10 41
0 19 5 34 10 34 6 0 10 -18 10 -41z m-455 -65 c0 -54 -3 -69 -15 -69 -9 0 -18
21 -27 65 -16 78 -12 93 19 81 21 -8 23 -15 23 -77z m239 50 c4 -19 20 -49 36
-68 l30 -33 -61 -7 c-34 -3 -65 -3 -70 0 -5 3 -9 32 -9 65 0 49 -3 59 -17 60
-30 1 16 16 53 17 29 1 33 -2 38 -34z m-678 9 c-4 -9 -9 -42 -13 -74 -5 -55
-4 -59 25 -88 l30 -31 -66 0 c-39 -1 -77 -7 -92 -15 -26 -15 -130 -21 -130 -7
0 4 15 14 33 23 22 11 33 24 35 42 3 26 6 27 57 27 30 0 57 5 60 10 4 6 -16
10 -53 10 -43 0 -61 4 -65 14 -3 8 -18 16 -33 18 -15 2 -29 9 -32 16 -3 11 0
12 16 3 41 -22 115 -13 165 19 26 16 47 34 47 40 0 5 5 10 11 10 6 0 8 -7 5
-17z m-641 -18 c22 0 51 4 65 9 22 8 23 7 12 -7 -7 -8 -24 -18 -37 -21 -14 -4
-25 -13 -25 -21 0 -19 -16 -20 -27 -2 -4 7 -23 19 -40 26 -37 15 -46 37 -10
24 12 -4 40 -8 62 -8z m838 -45 c23 0 28 -3 18 -9 -20 -13 -7 -81 19 -103 11
-9 20 -19 20 -22 0 -3 -25 -6 -55 -6 -30 0 -55 2 -55 5 0 3 11 16 24 28 20 18
23 29 19 60 -4 27 -10 37 -24 37 -10 0 -21 5 -25 12 -5 8 -2 9 10 5 10 -4 32
-7 49 -7z m-808 -65 c24 -59 104 -80 189 -50 37 13 41 13 69 -11 l29 -24 -164
0 c-169 0 -238 6 -238 21 0 5 8 9 18 9 28 1 62 36 62 64 0 37 17 32 35 -9z
m1438 -2 c12 -7 -203 -63 -215 -56 -5 2 -8 12 -8 22 0 14 13 19 63 27 85 13
146 16 160 7z m-1690 -40 l32 -17 -59 -13 c-41 -10 -62 -11 -70 -3 -7 7 -5 10
7 10 10 0 25 9 34 20 21 24 17 24 56 3z m1316 -14 c17 -17 31 -33 31 -36 0
-10 -163 6 -174 17 -7 7 -2 10 16 10 14 0 36 9 49 20 32 26 42 25 78 -11z
m-1641 -26 c-10 -2 -28 -2 -40 0 -13 2 -5 4 17 4 22 1 32 -1 23 -4z"/>
<path d="M2014 1791 c21 -23 26 -26 26 -11 0 5 -10 15 -22 21 -23 12 -23 12
-4 -10z"/>
<path d="M600 1689 c0 -5 5 -7 10 -4 6 3 10 8 10 11 0 2 -4 4 -10 4 -5 0 -10
-5 -10 -11z"/>
<path d="M492 1495 c0 -16 2 -22 5 -12 2 9 2 23 0 30 -3 6 -5 -1 -5 -18z"/>
<path d="M2466 1464 c-4 -10 -1 -14 6 -12 15 5 23 28 10 28 -5 0 -13 -7 -16
-16z"/>
<path d="M2660 1400 c0 -5 5 -10 10 -10 6 0 10 5 10 10 0 6 -4 10 -10 10 -5 0
-10 -4 -10 -10z"/>
<path d="M2830 1380 c0 -5 5 -10 10 -10 6 0 10 5 10 10 0 6 -4 10 -10 10 -5 0
-10 -4 -10 -10z"/>
<path d="M3080 1070 c0 -8 -12 -27 -27 -43 l-28 -30 27 18 c27 17 45 51 34 62
-3 4 -6 0 -6 -7z"/>
<path d="M2975 980 c-22 -10 -83 -26 -135 -35 -123 -21 -269 -53 -250 -54 9
-1 76 10 149 25 73 14 136 23 139 20 10 -10 -29 -130 -60 -186 -80 -144 -202
-304 -257 -338 -15 -9 -39 -29 -55 -44 -31 -30 -155 -108 -246 -153 -30 -15
-113 -44 -185 -64 -128 -35 -133 -36 -320 -36 -184 0 -194 1 -315 33 -130 35
-251 89 -372 167 -86 56 -249 220 -305 308 -43 67 -123 216 -123 228 0 4 56
10 125 14 107 6 125 9 125 24 0 9 -5 23 -10 31 -8 12 -10 9 -10 -12 0 -26 -3
-28 -40 -28 -33 0 -40 3 -40 20 0 11 -4 20 -10 20 -5 0 -10 -9 -10 -20 0 -19
-7 -20 -90 -20 l-90 0 0 30 c0 38 -18 40 -22 3 -2 -17 -10 -29 -20 -31 -14 -3
-18 4 -19 30 -2 31 -2 31 -6 5 -4 -23 -7 -26 -19 -16 -8 6 -17 9 -21 6 -3 -4
19 -18 50 -33 32 -14 57 -30 57 -36 0 -5 11 -32 25 -60 14 -27 25 -55 25 -61
0 -7 30 -57 67 -112 137 -204 343 -371 566 -459 189 -75 262 -89 477 -88 221
0 289 12 471 83 238 94 418 238 574 459 55 79 90 153 134 283 20 59 31 79 48
83 12 3 27 12 34 20 14 17 14 17 -36 -6z"/>
<path d="M1159 912 c-3 -18 -2 -35 2 -38 12 -7 16 9 9 41 l-6 30 -5 -33z"/>
<path d="M1867 933 c-14 -13 -7 -53 8 -53 12 0 14 7 9 28 -8 33 -9 34 -17 25z"/>
<path d="M1970 910 c0 -16 5 -30 10 -30 6 0 10 14 10 30 0 17 -4 30 -10 30 -5
0 -10 -13 -10 -30z"/>
<path d="M2088 910 c-3 -20 0 -30 9 -30 8 0 13 12 13 30 0 17 -4 30 -9 30 -5
0 -11 -13 -13 -30z"/>
<path d="M2170 906 c0 -32 2 -34 46 -40 67 -9 137 -7 154 4 11 7 11 10 2 10
-7 0 -17 10 -22 23 l-9 22 -7 -22 c-7 -27 -54 -33 -54 -8 0 8 -4 15 -10 15 -5
0 -10 -7 -10 -15 0 -10 -11 -15 -35 -15 -32 0 -35 2 -35 30 0 17 -4 30 -10 30
-5 0 -10 -15 -10 -34z"/>
<path d="M1060 900 c0 -16 5 -30 10 -30 6 0 10 14 10 30 0 17 -4 30 -10 30 -5
0 -10 -13 -10 -30z"/>
<path d="M968 895 c-4 -17 -1 -25 8 -25 8 0 14 11 14 25 0 14 -4 25 -9 25 -5
0 -11 -11 -13 -25z"/>
<path d="M1250 903 c0 -13 5 -23 10 -23 13 0 13 11 0 30 -8 12 -10 11 -10 -7z"/>
<path d="M1547 900 c-3 -13 0 -20 9 -20 15 0 19 26 5 34 -5 3 -11 -3 -14 -14z"/>
<path d="M1650 900 c0 -11 5 -20 10 -20 6 0 10 9 10 20 0 11 -4 20 -10 20 -5
0 -10 -9 -10 -20z"/>
<path d="M1757 900 c-3 -13 0 -20 9 -20 15 0 19 26 5 34 -5 3 -11 -3 -14 -14z"/>
<path d="M2410 895 c0 -14 5 -25 10 -25 6 0 10 11 10 25 0 14 -4 25 -10 25 -5
0 -10 -11 -10 -25z"/>
<path d="M1340 895 c0 -8 5 -15 10 -15 6 0 10 7 10 15 0 8 -4 15 -10 15 -5 0
-10 -7 -10 -15z"/>
<path d="M1440 895 c0 -8 5 -15 10 -15 6 0 10 7 10 15 0 8 -4 15 -10 15 -5 0
-10 -7 -10 -15z"/>
<path d="M2538 883 c6 -2 18 -2 25 0 6 3 1 5 -13 5 -14 0 -19 -2 -12 -5z"/>
<path d="M780 790 c0 -5 12 -10 26 -10 l26 0 -31 -39 c-17 -21 -31 -42 -31
-45 0 -3 23 -6 52 -6 52 0 58 15 9 22 l-25 3 32 32 c18 17 32 36 32 42 0 6
-20 11 -45 11 -25 0 -45 -4 -45 -10z"/>
<path d="M900 758 c-11 -23 -20 -49 -20 -55 0 -17 15 -16 30 2 7 8 19 15 27
15 7 0 16 -7 19 -15 6 -15 34 -21 34 -7 -1 16 -47 96 -58 100 -7 2 -21 -16
-32 -40z m40 -8 c0 -5 -4 -10 -10 -10 -5 0 -10 5 -10 10 0 6 5 10 10 10 6 0
10 -4 10 -10z"/>
<path d="M1007 793 c-12 -11 -8 -103 4 -103 6 0 13 9 16 19 3 11 14 21 25 23
30 4 45 32 29 52 -13 16 -62 22 -74 9z m56 -28 c1 -5 -6 -11 -15 -13 -11 -2
-18 3 -18 13 0 17 30 18 33 0z"/>
<path d="M1127 765 c-9 -20 -17 -45 -17 -57 0 -20 1 -20 18 -5 23 21 31 21 54
0 10 -9 21 -13 25 -10 9 10 -38 107 -52 107 -6 0 -19 -16 -28 -35z m34 -18
c-1 -12 -15 -9 -19 4 -3 6 1 10 8 8 6 -3 11 -8 11 -12z"/>
<path d="M1220 791 c0 -5 7 -11 15 -15 10 -3 15 -19 15 -47 0 -55 24 -47 28 9
2 29 8 42 18 42 8 0 14 5 14 10 0 6 -20 10 -45 10 -25 0 -45 -4 -45 -9z"/>
<path d="M1340 781 c-24 -46 -7 -93 34 -93 35 -1 56 19 56 53 0 52 -67 82 -90
40z m60 -16 c18 -22 3 -55 -26 -55 -20 0 -24 5 -24 28 0 43 25 57 50 27z"/>
<path d="M1500 745 l0 -55 54 0 c39 0 55 4 60 15 7 20 30 19 51 -1 9 -9 19
-14 22 -10 8 7 -25 94 -39 102 -14 9 -45 -33 -54 -69 -4 -20 -10 -27 -21 -23
-8 3 -23 6 -34 6 -16 0 -19 7 -19 45 0 25 -4 45 -10 45 -5 0 -10 -25 -10 -55z
m150 5 c0 -5 -4 -10 -10 -10 -5 0 -10 5 -10 10 0 6 5 10 10 10 6 0 10 -4 10
-10z"/>
<path d="M1710 761 c0 -61 7 -71 50 -71 25 0 40 5 44 16 9 24 7 94 -3 94 -12
0 -21 -26 -21 -61 0 -22 -5 -29 -19 -29 -21 0 -31 19 -31 61 0 16 -4 29 -10
29 -5 0 -10 -18 -10 -39z"/>
<path d="M1837 793 c-11 -10 -8 -103 3 -103 6 0 10 11 10 24 0 37 14 39 34 5
27 -46 46 -38 46 20 0 28 -4 53 -10 56 -6 4 -10 -7 -10 -27 l-1 -33 -29 33
c-32 35 -33 35 -43 25z"/>
<path d="M1957 793 c-4 -3 -7 -28 -7 -55 l0 -48 38 0 c21 0 43 5 50 12 20 20
15 76 -7 88 -22 11 -64 13 -74 3z m61 -22 c22 -13 11 -56 -15 -59 -19 -3 -23
1 -23 26 0 40 12 50 38 33z"/>
<path d="M2077 793 c-4 -3 -7 -28 -7 -55 l0 -48 45 0 c25 0 45 5 45 10 0 6
-13 10 -30 10 -20 0 -30 5 -30 15 0 9 9 15 25 15 14 0 25 5 25 10 0 6 -11 10
-25 10 -14 0 -25 5 -25 10 0 6 14 10 30 10 17 0 30 5 30 10 0 11 -73 14 -83 3z"/>
<path d="M2180 746 c0 -31 5 -56 10 -56 6 0 10 9 10 19 0 31 17 33 38 6 20
-25 50 -36 35 -12 -4 6 -8 30 -8 52 0 40 0 40 -42 43 l-43 3 0 -55z m65 24 c4
-6 -5 -10 -20 -10 -15 0 -24 4 -20 10 3 6 12 10 20 10 8 0 17 -4 20 -10z"/>
<path d="M2297 793 c-4 -3 -7 -28 -7 -55 0 -36 4 -48 15 -48 12 0 15 13 15 55
0 51 -7 65 -23 48z"/>
<path d="M2382 787 c-17 -20 -44 -88 -38 -95 3 -3 15 3 26 13 19 17 21 17 40
0 27 -25 36 -13 20 27 -23 56 -35 71 -48 55z m18 -37 c0 -5 -5 -10 -11 -10 -5
0 -7 5 -4 10 3 6 8 10 11 10 2 0 4 -4 4 -10z"/>
<path d="M2527 782 c-42 -46 3 -112 61 -91 14 5 22 16 22 31 -1 21 -2 22 -14
6 -7 -10 -23 -18 -34 -18 -28 0 -39 37 -18 58 14 14 20 15 37 4 25 -16 37 -8
19 13 -17 20 -53 19 -73 -3z"/>
<path d="M2646 784 c-19 -18 -21 -65 -4 -82 7 -7 26 -12 43 -12 38 0 55 16 55
51 0 34 -24 59 -55 59 -13 0 -31 -7 -39 -16z m64 -19 c18 -21 3 -55 -25 -55
-15 0 -26 7 -30 20 -7 23 10 50 30 50 7 0 18 -7 25 -15z"/>
<path d="M2470 700 c0 -5 5 -10 10 -10 6 0 10 5 10 10 0 6 -4 10 -10 10 -5 0
-10 -4 -10 -10z"/>
</g>
</svg>
